<?xml version="1.0" encoding="UTF-8"?>
<svg version="1.1" viewBox="0 0 1000 1000" width="1000" height="1000" xmlns="http://www.w3.org/2000/svg">
<path transform="translate(654,228)" d="m0 0h17l34 2 29 4 25 5 15 4 27 9 24 11 16 10 14 11 11 11 9 13-1 2-6-8-4-1-5-6-2-1 5 9 6 10 7 15 6 18 6 29 2 23v49l-1 8h-2l-2-14-4-49-7-42h-2l2 16 5 24 5 54 1 37v57l-1 20-5 32-6 21-6 15-8 15-9 12-7 8-14 11-8 5-11 5-10 4-11 5-14 5-11 2h-9l1-2 9-3h3v-2h-15l-14 3-4 10-3 13v29l4 15 7 14 9 11 13 10 14 8 8 5-1 2-12-3-14-6-10-7-4-2-2 1-2-1 5 8 25 8v2h-15l1 3 10 4v2l-7-1-10-6-1-1-19-3-19-6-16-7-17-9-15-10-18-11-14-11-10-10-8-13-3-10-6-10h-27l-26 2-42 4-39 6-11 2v-2l3-2h-11l-35 2h-55l-54-4-45-5-23-4-16-5 1 2 14 5 20 5 1 3h-14l-16-3-14-5-12-6-10-7-10-9-7-8-8-14-5-15-5-21-2-8v-11l3 1-2-12-3-46v-8h-2v59l-2 26h-2l-1-2-2-53-3-6-6-48-5-47-4-38-3-41-2-23-3-55-1-5-6 18-2-2 3-15 5-13 1-9 1 3h2l2-5 9-12 5-6 11-9 10-7 19-10 27-9h2v2l-23 9-19 10-12 8-14 12-8 10-8 13-1 6 5 64 3 36 3 31 3 35 5 54 2 21v6h2l-3-60-2-43-6-68-2-24v-28l-1-1v-9l2-10 4-12 7-11 8-10 9-8 14-7 18-4 11-4 29-8 19-4 33-4 61-5 15-1h138l47 2h38l2-2 19-4 14-2zm-7 4-25 1-27 3-3 1v2l65 1 33 2 25 3 29 5 26 7 11 3 23 5 13 3-1-5-24-10-23-7-23-5-29-5-30-3-22-1zm14 12v2l49 5h10l-2-2-24-3-26-2zm147 27 1 3 16 10 3 2 1-2-4-8-16-5zm20 7 5 9 7 9 7 7 9 11 3 4h2l-2-5-6-11-10-13-10-10zm-662 4-9 6-4 5v2l4-2 8-7 2-4zm-23 27-2 5-2 15v24h2l1-8 1-20 2-16zm708 5 2 6 8 16 4 9 2-2v-9l-8-12-6-8zm-35 348-10 7-16 8-9 4v2l8-1 8-3 18-12 3-3v-2zm-630 18 2 4 7 6-2-5-6-5zm421 32 3 5h1v-5z" fill="#fff"/>
<path transform="translate(654,228)" d="m0 0h17l34 2 29 4 25 5 15 4 27 9 24 11 16 10 14 11 11 11 9 13-1 2-6-8-4-1-5-6-2-1 5 9 6 10 7 15 6 18 6 29 2 23v49l-1 8h-2l-2-14-4-49-7-42h-2l2 16 5 24 5 54 1 37v57l-1 20-5 32-6 21-6 15-8 15-9 12-7 8-14 11-8 5-11 5-10 4-11 5-14 5-11 2h-9l1-2 9-3h3v-2h-15l-14 3-4 10-3 13v29l4 15 7 14 9 11 13 10 14 8 8 5-1 2-12-3-14-6-10-7-4-2-2 1-2-1 5 8 25 8v2h-15l1 3 10 4v2l-7-1-10-6-1-1-19-3-19-6-16-7-17-9-15-10-18-11-14-11-10-10-8-13-3-10-6-10h-27l-26 2-42 4-39 6-11 2v-2l3-2h-11l-35 2h-55l-54-4-45-5-23-4-16-5 1 2 14 5 20 5 1 3h-14l-16-3-14-5-12-6-10-7-10-9-7-8-8-14-5-15-5-21-2-8v-11l3 1-2-12-3-46v-8h-2v59l-2 26h-2l-1-2-2-53-3-6-6-48-5-47-4-38-3-41-2-23-3-55-1-5-6 18-2-2 3-15 5-13 1-9 1 3h2l2-5 9-12 5-6 11-9 10-7 19-10 27-9h2v2l-23 9-19 10-12 8-14 12-8 10-8 13-1 6 5 64 3 36 3 31 3 35 5 54 2 21v6h2l-3-60-2-43-6-68-2-24v-28l-1-1v-9l2-10 4-12 7-11 8-10 9-8 14-7 18-4 11-4 29-8 19-4 33-4 61-5 15-1h138l47 2h38l2-2 19-4 14-2zm-7 4-25 1-27 3-3 1v2l65 1 33 2 25 3 29 5 26 7 11 3 23 5 13 3-1-5-24-10-23-7-23-5-29-5-30-3-22-1zm-278 12-46 2-24 2-31 4-31 6-21 5-30 10-11 9-12 11-8 10-6 12-1 11v26l2 27 7 60 2 42 6 32 10 49 3 15h-2l-1-8-12-51h-2l1 35 1 9v16l2 29 4 25 8 20 10 19 6 7 12 7 8-6 11-8 24-15 16-11 5-4 1 1-9 9-14 10-28 17-11 7 3 3 17 6 18 4h5l10-11 14-11 14-8 10-4-3 3-16 10-14 11-11 9v2l10 1 8-10 11-11 13-9 9-5v2l-13 10-14 12-9 9v2l2 1h7l8-10 11-9 11-8 12-7-4 5-13 10-11 9-7 7-2 1v2l2 1 23 1h75l111-5 28-1h70l37 2-1 1-50 1-68 3-67 4-35 2-41 1h-41v2l2 1 31 1h50l39-1 143-10v2h-2v2l12 1v-2l6 3 5-1h2v11l3 8 12 14 12 12 15 10 27 14 16 7 20 8 18 6-1-5-8-20-7-19-3-14-1-8v-14l3-14 5-10 6-4-1-3 28-2 18-6 16-7 17-10 14-11 13-13 11-15 12-23 8-23 5-22 2-26v-44l-3-48-2-14-7-30-4 1-3-21-7-24-7-17-7-13-8-11-9-10-11-8-10-5-13-3-8-1h15l13 4 11 6 12 11 10 13 11 21 8 22 10 38 2 1v-14l-2-13-6-20-6-16-11-24-9-16-10-8-18-11-19-9-15-3-45-5-33-3-49-4-68-4-49-2-85-2zm292 0v2l49 5h10l-2-2-24-3-26-2zm147 27 1 3 16 10 3 2 1-2-4-8-16-5zm20 7 5 9 7 9 7 7 9 11 3 4h2l-2-5-6-11-10-13-10-10zm-662 4-9 6-4 5v2l4-2 8-7 2-4zm-23 27-2 5-2 15v24h2l1-8 1-20 2-16zm708 5 2 6 8 16 4 9 2-2v-9l-8-12-6-8zm-35 348-10 7-16 8-9 4v2l8-1 8-3 18-12 3-3v-2zm-630 18 2 4 7 6-2-5-6-5zm421 32 3 5h1v-5z" fill="#0C090A"/>
<path transform="translate(212,394)" d="m0 0h40l10 2 6 3 7 8 3 9v76l-3 10-4 6-6 5-9 3h-44z" fill="#030203"/>
<path transform="translate(493,393)" d="m0 0h13l11 3 6 4 6 7 3 7 1 5v70l-3 12-6 8-6 5-9 3h-19l-11-4-7-7-4-8-2-8v-71l3-10 4-6 7-6 7-3z" fill="#080606"/>
<path transform="translate(615,394)" d="m0 0h44l9 2 6 4 4 5 3 11v22l-3 8-7 6 5 5 3 6v53h-27l-1-54-8-1v55h-28z" fill="#020202"/>
<path transform="translate(541,394)" d="m0 0h26l1 94 1 5h7l3-5 1-94h26v99l-3 10-6 8-9 5-4 1h-21l-10-4-7-6-5-12z" fill="#040303"/>
<path transform="translate(421,393)" d="m0 0h9l12 3 10 6 6 10 1 5v26h-27l-1-19-3-5h-5l-2 2v69l3 3 5-1 2-3 1-25h27v32l-4 10-8 7-11 4h-20l-10-4-8-7-4-7-2-12v-59l2-14 5-10 5-5 7-4z" fill="#070505"/>
<path transform="translate(713,393)" d="m0 0h13l10 3 9 6 5 8 2 8v11h-27l-2-10-1-1-7 1-1 6 4 6 14 12 10 8 8 11 3 9v21l-3 10-6 9-9 5-4 1h-21l-11-4-5-5-5-8-2-9v-20l1-1h25l1 1 1 16 1 5h7l2-3v-11l-5-8-7-7-11-9-9-9-5-10-1-4v-13l3-10 6-8 6-4z" fill="#050404"/>
<path transform="translate(346,393)" d="m0 0h13l10 3 8 5 6 9 2 7v13h-27l-1-9-3-3-6 1-1 6 4 6 14 12 10 8 7 9 4 10v22l-3 10-6 9-7 4-6 2h-21l-11-4-7-7-4-10-1-5v-20l1-1h25l1 1 1 16 1 5h7l2-2v-12l-4-7-9-9-11-9-7-7-5-8-2-7v-13l3-10 6-8 9-5z" fill="#060505"/>
<path transform="translate(760,394)" d="m0 0h54v24h-26v24h25v23h-25v27h28v24h-56z" fill="#030302"/>
<path transform="translate(287,394)" d="m0 0h25l1 1v121h-26l-1-1v-120z" fill="#080606"/>
<path transform="translate(353,538)" d="m0 0h10l10 4 6 5 5 9 1 4v11l-4 9-6 7-7 4-4 1h-12l-8-3-8-7-4-8-1-3v-12l4-9 5-6 6-4z" fill="#fff"/>
<path transform="translate(635,600)" d="m0 0h30l32 1 30 2 4 2-1 4-15 3-52 6-44 7-3 1h78l16 2 2 2-1 4-8 2-50 6-10 2h-4v3l16 2 34 4 4 1-1 3-24-2-29-4-5-3-1-4 4-3 21-4 39-5 1-1-17-1h-35l-45 2h-13l-4-2 2-4 33-5 23-4 67-10-2-1-22-1h-62l-76 6h-11v-4l1-1 72-5z" fill="#281F1F"/>
<path transform="translate(205,240)" d="m0 0h2v2l-23 9-19 10-12 8-14 12-8 10-8 13-1 6 5 64 3 36 3 31 3 35 5 54 2 21v6l-3-1-4-31-5-47-4-38-3-41-2-23-3-55-1-5-6 18-2-2 3-15 5-13 1-9 1 3h2l2-5 9-12 5-6 11-9 10-7 19-10z" fill="#140F11"/>
<path transform="translate(488,538)" d="m0 0h24l3 2v7l-1 1h-19v12h14l2 2v6l-2 2h-14v12h19l1 1v7l-2 2h-26l-2-2v-50z" fill="#94776D"/>
<path transform="translate(700,538)" d="m0 0h24l3 3-1 7h-19v12h14l1 1v8l-1 1h-14v12h19l1 7-3 3h-25l-2-2v-50z" fill="#92756A"/>
<path transform="translate(647,538)" d="m0 0 6 1 1 1 1 31 15-23 6-9 1-1h6l2 1-1 7-28 44-2 2h-7l-3-3v-48z" fill="#907269"/>
<path transform="translate(234,273)" d="m0 0h3v3l4 1-7 3-13 5-13 7-12 9-10 9-9 12-5 10-3 10v12l4 11 7 10h-3l-8-9-4-9-1-4v-12l3-12 7-12 8-10 9-9 11-8 8-5h2v-2l-18 8-15 8-13 10-7 9-3 7v12l-3-1-1-3v-10l7-14 8-8 13-9 16-8 13-5 13-4z" fill="#1D1618"/>
<path transform="translate(635,600)" d="m0 0h30l32 1 30 2 4 2-1 4-15 3-35 4h-14l2-3 41-6-2-1-22-1h-62l-76 6h-11v-4l1-1 72-5z" fill="#251C1D"/>
<path transform="translate(305,538)" d="m0 0h10l8 3 1 1v7l-2 2-5-1-3-1h-8l-6 3-5 6-1 10 3 7 6 5 3 1h8l5-2 4 1 1 1v7l-4 3-4 1h-12l-9-4-6-5-5-9-1-4v-10l4-10 4-5 10-6z" fill="#34272C"/>
<path transform="translate(544,538)" d="m0 0h11l8 3 1 7-2 3-5-1-3-1h-8l-6 3-5 6-1 3v9l4 7 8 4h8l5-2 4 1 1 7-2 3-6 2h-12l-9-4-6-5-5-9-1-3v-12l4-9 5-6 9-5z" fill="#907269"/>
<path transform="translate(239,416)" d="m0 0h7l5 5v70l-4 3h-8z" fill="#fff"/>
<path transform="translate(354,548)" d="m0 0h8l6 3 6 7 1 3v8l-4 8-6 4-3 1h-9l-8-5-4-7v-9l3-6 7-6z" fill="#fff"/>
<path transform="translate(498,417)" d="m0 0 5 1 2 3 1 8-1 60-3 4-7-1-2-6v-63l3-5z" fill="#fff"/>
<path transform="translate(353,220)" d="m0 0h55l4 2-7 1-58 2-50 4-35 5-26 6-21 7-17 9-4 2v-2l10-7 16-8 17-6 25-6 16-3 37-4 12-1z" fill="#191216"/>
<path transform="translate(445,538)" d="m0 0 5 1 2 2v41h20l2 2-1 7-2 1h-27l-3-3v-48z" fill="#483739"/>
<path transform="translate(577,538)" d="m0 0h29l3 3-1 7-11 1-1 41-2 2-7-1-1-2v-41h-11l-1-1v-7z" fill="#907369"/>
<path transform="translate(401,538)" d="m0 0 6 1 1 1v42h21l1 1v7l-2 2h-28l-2-2v-50z" fill="#171212"/>
<path transform="translate(768,287)" d="m0 0h8l11 4 9 7 9 10 9 15 6 13 7 19 5 19 3 17 1 11-2 1-7-29-5-17-7-19-8-16-7-12-11-12-9-5-2-1h-16l-6 1v-2z" fill="#21191B"/>
<path transform="translate(621,538)" d="m0 0h6l3 3v48l-3 3-7-1-1-2v-48z" fill="#725A54"/>
<path transform="translate(843,566)" d="m0 0h1v14l-3 12-5 12-7 12-11 12-7 7-14 10-14 8-20 8-15 4-4-1 5-3 15-5 23-11 15-10 13-11 9-10 8-13 5-11 4-16 1-7z" fill="#1A1315"/>
<path transform="translate(798,295)" d="m0 0 9 2 8 4 10 9 9 13 9 19 6 19 5 24 1 13-3-3-7-28-9-27-8-16-6-10-6-7-11-7-8-3z" fill="#21191B"/>
<path transform="translate(615,394)" d="m0 0h44v1h-43l1 118 4-4h15l5 5 1-53-3-1 1-5 1-1h10l5 5-1 3-12-1v55h-28z" fill="#95786B"/>
<path transform="translate(760,396)" d="m0 0h1l1 117 4-4h44l4 4v2l2 1h-56z" fill="#95786B"/>
<path transform="translate(306,540)" d="m0 0h8l7 2v6l-7-2h-8l-7 3-4 2-2 5-1 2v12l3 6 7 6 3 1h10l6-2v6l-6 2h-10l-9-4-5-4-5-9-1-9 2-8 6-9 9-5z" fill="#fff"/>
<path transform="translate(700,538)" d="m0 0h24l3 3-1 7h-19v12h14l1 1v8l-1 1h-14v12h19l1 7-3 3h-25l-2-2v-50zm-1 2v50h25l1-1v-5l-1-1h-19v-15h15l1-1v-5l-15-1-1-15h20v-5l-1-1z" fill="#372A2C"/>
<path transform="translate(353,538)" d="m0 0h10l10 4 6 5 5 9 1 4v11l-4 9-6 7-7 4-4 1h-12l-8-3-8-7-4-8-1-3v-12l4-9 5-6 6-4zm1 2-9 3-6 5-4 6-2 7v7l3 9 6 7 10 5h12l8-4 5-4 5-10 1-8-2-9-6-8-6-4-7-2z" fill="#34272A"/>
<path transform="translate(488,538)" d="m0 0h24l3 2v7l-1 1h-19v12h14l2 2v6l-2 2h-14v12h19l1 1v7l-2 2h-26l-2-2v-50zm-1 2v50h25l1-1v-6h-20v-15h16v-6l-1-1h-15l1-14 19-1v-6z" fill="#110E0D"/>
<path transform="translate(265,503)" d="m0 0h3l2 6-5 4-9 3h-44l1-2 5-5 30-1 12-2z" fill="#95786B"/>
<path transform="translate(403,502)" d="m0 0 12 6 5 1h11l9-2 9-5 3 7-9 6-7 2h-20l-10-4-5-5z" fill="#684760"/>
<path transform="translate(444,541)" d="m0 0h5v42h22l1 1v5h-28z" fill="#A2897E"/>
<path transform="translate(331,503)" d="m0 0 4 2 8 3 5 1h12l10-3 5-3 3 7-5 4-9 3h-21l-11-4-3-3 1-6z" fill="#91746A"/>
<path transform="translate(544,538)" d="m0 0h11l8 3 1 7-2 3-5-1-3-1h-8l-6 3-5 6-1 3v9l4 7 8 4h8l5-2 4 1 1 7-2 3-6 2h-12l-9-4-6-5-5-9-1-3v-12l4-9 5-6 9-5zm-1 2-8 4-7 7-3 7v14l4 8 8 7 7 3h12l6-3v-6l-10 2-8-1-7-4-4-6-1-10 3-8 6-5 5-2h8l5 2h3v-7l-5-2z" fill="#1A1315"/>
<path transform="translate(551,503)" d="m0 0 5 2 7 3 5 1h11l11-3 4-3h2l2 7-8 5-6 2h-21l-10-4-3-3z" fill="#91746A"/>
<path transform="translate(477,503)" d="m0 0 5 2 7 3 14 1 10-2 7-4h2l1 7-5 4-9 3h-19l-11-4-3-3z" fill="#684860"/>
<path transform="translate(698,503)" d="m0 0 11 5 6 1h12l10-3 5-3 3 7-8 5-6 2h-21l-11-4-4-4z" fill="#91746A"/>
<path transform="translate(647,538)" d="m0 0 6 1 1 1 1 31 15-23 6-9 1-1h6l2 1-1 7-28 44-2 2h-7l-3-3v-48zm0 2-1 1v48l1 1h7l15-24 14-22v-4h-6l-11 17-12 19-1-35-1-1z" fill="#332925"/>
<path transform="translate(400,541)" d="m0 0h6v43h22l-1 4v-3l-17 1 4 3h-13l-1-1z" fill="#987C6F"/>
<path transform="translate(227,291)" d="m0 0 3 1-9 9-11 9-7 7-6 5-9 12-2 5v12l-3-1-2-5 1-9 5-10 11-12 11-10 17-12z" fill="#201919"/>
<path transform="translate(269,640)" d="m0 0 3 1-11 11-14 10-28 17-9 5 2-4 5-5 10-7 21-13 16-11z" fill="#1C1617"/>
<path transform="translate(354,545)" d="m0 0h8l7 3 5 4 4 10-1 9-5 8-8 5h-11l-8-4-6-9-1-8 3-9 4-5zm0 3-6 3-6 7-1 3v9l5 8 7 4h9l8-4 4-6 1-3v-8l-3-6-7-6-3-1z" fill="#433137"/>
<path transform="translate(651,638)" d="m0 0h7l-2 3-13 3h-4v3l16 2 34 4 4 1-1 3-24-2-29-4-5-3-1-4 4-3z" fill="#2D2225"/>
<path transform="translate(577,538)" d="m0 0h29l3 3-1 7-11 1-1 41-2 2-7-1-1-2v-41h-11l-1-1v-7zm-1 2v6h12v43l1 1h5l1-1v-43h12v-5l-1-1z" fill="#4B3C36"/>
<path transform="translate(820,595)" d="m0 0 1 3-9 12-18 18-11 9-10 8-2-1 7-8 16-16 8-7z" fill="#1B1516"/>
<path transform="translate(312,395)" d="m0 0h1v121h-26l6-7h13l5 4z" fill="#674660"/>
<path transform="translate(698,441)" d="m0 0 4 2 12 11 8 7 5 6v2l-7 1-7-7-11-9-2-4-2-2z" fill="#64445C"/>
<path transform="translate(331,441)" d="m0 0 4 2 11 10 8 7 6 7v2l-7 1-8-8-8-7-6-7z" fill="#64455D"/>
<path transform="translate(272,653)" d="m0 0h2l-1 3-17 12-18 14-10 7h-3l2-4 11-10 17-13 12-7z" fill="#221A1B"/>
<path transform="translate(643,417)" d="m0 0h6l4 2 1 2v15l-4 4-7-1z" fill="#fff"/>
<path transform="translate(284,653)" d="m0 0v3l-12 11-11 9-12 10-5 3h-2l2-4 12-12 11-9 13-9z" fill="#21191B"/>
<path transform="translate(382,567)" d="m0 0h1v10l-7 9-8 5-4 1h-12l-8-3-8-7-4-8 1-6 5 10 4 5 10 5h12l8-4 3-3h2l2-5z" fill="#3A2A31"/>
<path transform="translate(789,457)" d="m0 0h17l6 5 1 3h-25v27h-1v-28h-3l1-5z" fill="#8F7169"/>
<path transform="translate(788,411)" d="m0 0h20l5 5v2h-25v23h-1v-23l-3-1 1-4z" fill="#95786B"/>
<path transform="translate(760,396)" d="m0 0h1l1 117 4-4h44l4 4v2l2 1-5-1-2-4-42-1-2 5-5 1z" fill="#674660"/>
<path transform="translate(615,394)" d="m0 0h44v1h-43l1 118 4-4h15v1l-14 1-2 4-5 1z" fill="#715162"/>
<path transform="translate(652,466)" d="m0 0h1l1 48 5-5h14l6 5v2h-27z" fill="#907369"/>
<path transform="translate(410,509)" d="m0 0 9 1h14l10-1-2 5-1 2-4 1h-20l-4-2z" fill="#91746A"/>
<path transform="translate(484,509)" d="m0 0 10 1h12l9-1-1 4-1 3-4 1h-19l-4-2-2-3z" fill="#94766A"/>
<path transform="translate(331,503)" d="m0 0 4 2 8 3 5 1h12l10-3 5-3 3 7-5 4-7 1 3-5-8 1h-14l-10-1v3l4 2-7-1-5-4 1-6z" fill="#68475F"/>
<path transform="translate(677,538)" d="m0 0h6l2 1-1 7-14 22-10 16-2-2 24-38 1-3h-6l-15 24-6 9h-2l2-4 13-21 7-10z" fill="#1D1617"/>
<path transform="translate(698,503)" d="m0 0 11 5 6 1h12l10-3 5-3 3 7-8 5-4-1 2-1 1-4-8 2h-14l-10-1 1 4 3 1-7-1-6-4z" fill="#66465E"/>
<path transform="translate(551,503)" d="m0 0 5 2 7 3 5 1h11l11-3 4-3h2l2 7-8 5-4-1 3-3 1-2-10 2h-13l-10-2 2 4 2 2-7-1-4-4z" fill="#684860"/>
<path transform="translate(662,614)" d="m0 0h5v1l5 1v1l-35 5-11 2h-6l-1-3 23-4z" fill="#2D2125"/>
<path transform="translate(449,539)" d="m0 0 3 2v41h20l1 1v5l-2-4-22-1z" fill="#433336"/>
<path transform="translate(725,542)" d="m0 0h1v6h-19v12h14l1 1v8l-1 1h-14v12h-1l-1-14 15-1 1-5h-15l-1-1v-15h20z" fill="#100C0E"/>
<path transform="translate(288,549)" d="m0 0 3 1-4 7-1 9 2 8 3 5v2l4 2 4 3 6 2h14l-3 2h-12l-2-1-1 2-6-3-6-5-5-9-1-4v-10l4-10z" fill="#4D393F"/>
<path transform="translate(409,585)" d="m0 0h18l2 6-1 1h-28l-1-2 2-2h11z" fill="#523E42"/>
<path transform="translate(432,428)" d="m0 0h1l1 12 4-4h14l5 5v2h-25z" fill="#8E7069"/>
<path transform="translate(642,410)" d="m0 0h9l5 3 1 5-6 1-8-2v22h6v1h-7v-23l-3-1 1-5z" fill="#7C5D65"/>
<path transform="translate(364,422)" d="m0 0h14l6 5v2h-25l2-4z" fill="#94776A"/>
<path transform="translate(401,543)" d="m0 0h1l1 35 1-8h1l1 14h22l-1 4v-3l-17 1 4 3h-13l-1-2z" fill="#fff"/>
<path transform="translate(730,422)" d="m0 0h15l5 5v2h-23l1-4z" fill="#95786B"/>
<path transform="translate(334,675)" d="m0 0 2 2-7 8-8 8-8 7h-3l2-5 9-10 10-8z" fill="#281E1F"/>
<path transform="translate(510,562)" d="m0 0h1v6l-2 2h-14v12h19l1 1v7l-2 2h-26v-1l24-1 2-7h-20v-15l16-1z" fill="#29201F"/>
<path transform="translate(265,503)" d="m0 0h3l2 6-5 4-5 1 2-6-12 2-31 1-2 4-5 1 1-2 5-5 30-1 12-2z" fill="#68485F"/>
<path transform="translate(238,409)" d="m0 0h10l5 3 1 5-6 1-2-1h-8l-3-3 1-4z" fill="#694860"/>
<path transform="translate(293,509)" d="m0 0h13l2 6 2 1h-23z" fill="#95786B"/>
<path transform="translate(546,546)" d="m0 0h8l2 2-13 2-7 6-2 5v9l4 7 8 4 10 1-4 2-8-1-7-4-5-7-1-10 3-8 7-6z" fill="#171212"/>
<path transform="translate(422,411)" d="m0 0h7l5 3 1 4-6 2-1-1h-5l-2 1-4-1v-5z" fill="#694860"/>
<path transform="translate(348,410)" d="m0 0h8l5 4-1 4-4 1-6-1-3 1-4-2 1-5z" fill="#684760"/>
<path transform="translate(299,579)" d="m0 0 7 2h8l5-2 4 1 1 1v7l-4 3-4 1h-12l-2-1v-2h17v-2h2l-1-5-5 2h-10l-6-3z" fill="#2F2227"/>
<path transform="translate(715,410)" d="m0 0h8l5 4-1 4-4 1-1-1-8 1-4-2 1-5z" fill="#674660"/>
<path transform="translate(497,410)" d="m0 0 8 1 3 3v4l-5 1-5-1-4 2-4-2 1-4 3-3z" fill="#684760"/>
<path transform="translate(375,559)" d="m0 0 2 4v8l-5 8-8 5h-11l-8-4-5-7v-2l3 1 3 5 7 4h9l8-4 4-8z" fill="#2D2225"/>
<path transform="translate(544,538)" d="m0 0h11l8 3 1 7-2 3-5-1-3-2 3-1 5 2v-7l-5-1h-14l-8 4-7 8-4 10-1-4 4-9 5-6 9-5z" fill="#292021"/>
<path transform="translate(306,545)" d="m0 0h8v1l-7 1-1 2-6 3-5 6-1 10 3 7 3 4h-3l-5-6-1-3v-12l4-7 5-4z" fill="#382A2E"/>
<path transform="translate(641,454)" d="m0 0h10l5 5-1 3-15-1-1-5z" fill="#674660"/>
<path transform="translate(606,539)" d="m0 0h2l1 7-1 2-11 1-1 41-1 1h-5l4-2 1-43h12z" fill="#010101"/>
<path transform="translate(788,411)" d="m0 0h20l5 5v2l-4-1-2-4h-17v3l1 2h-3v23h-1v-23l-3-1 1-4z" fill="#674660"/>
<path transform="translate(382,567)" d="m0 0h1v10l-7 9-8 5h-2v-2l-2-1 8-4 3-3h2l2-5z" fill="#4D3A3E"/>
<path transform="translate(677,538)" d="m0 0h6v2l-6 1-15 24-6 9h-2l2-4 13-21 7-10z" fill="#251C1D"/>
<path transform="translate(789,457)" d="m0 0h17v1l-15 1-2 2v2l3 1-4 1v27h-1v-28h-3l1-5z" fill="#684760"/>
<path transform="translate(662,614)" d="m0 0h5v1l5 1v1l-21 3h-5v-2l-4-1z" fill="#34262D"/>
<path transform="translate(698,503)" d="m0 0 10 5-4 2 1 4 3 1-7-1-6-4z" fill="#6A4960"/>
<path transform="translate(642,461)" d="m0 0h1v55l-6-1-1-5 5 4z" fill="#8B6D68"/>
<path transform="translate(473,584)" d="m0 0h1l-1 7-2 1h-27v-3l28-1z" fill="#74585C"/>
<path transform="translate(364,422)" d="m0 0h14v1l-13 1-2 4h17l-1-4 4 2 1 3h-25l2-4z" fill="#674660"/>
<path transform="translate(409,585)" d="m0 0h18l1 4h-14l-5-3z" fill="#95786B"/>
<path transform="translate(260,506)" d="m0 0m-3 1 3 1-10 2-31 1-2 4-5 1 1-2 5-5 30-1z" fill="#674660"/>
<path transform="translate(730,422)" d="m0 0h15l5 5v2h-23l1-4zm2 1-2 5h17l-2-5z" fill="#674660"/>
<path transform="translate(362,546)" d="m0 0 6 1 6 5 4 10-2 1-3-5-6-7-4-2z" fill="#4C393F"/>
<path transform="translate(171,553)" d="m0 0 3 1 3 13 1 10h-2l-5-20z" fill="#37292D"/>
<path transform="translate(375,559)" d="m0 0 2 4v8l-5 8-6 4-4-2 8-4 4-8z" fill="#322528"/>
<path transform="translate(761,657)" d="m0 0 3 1 2 2-18 5-4-1 5-3z" fill="#2F2426"/>
<path transform="translate(322,581)" d="m0 0h2v7l-4 3-4 1h-12l-2-1v-2h14l6-1z" fill="#271D20"/>
<path transform="translate(337,547)" d="m0 0h2l-1 4-3 6-2 15-2-1v-12l4-9z" fill="#2E2226"/>
<path transform="translate(213,244)" d="m0 0 2 1v2l-17 9-4 2v-2l10-7z" fill="#2D2126"/>
<path transform="translate(306,545)" d="m0 0h8v1l-7 1-1 2-6 3-4 3-3 1 2-5 5-4z" fill="#523E42"/>
<path transform="translate(291,581)" d="m0 0 4 2 4 3 6 2h14l-3 2h-12l-2-1-1 2-5-2-3-5z" fill="#5D444D"/>
<path transform="translate(322,542)" d="m0 0h2v7l-2 2-5-1-11-2 1-2h10v2l5 1z" fill="#231A1E"/>
<path transform="translate(706,548)" d="m0 0h1v12h14l1 1v5l-1-4h-15l-1-2z" fill="#1F161C"/>
<path transform="translate(559,579)" d="m0 0 4 1 1 7-2 3-6 2-4-1 9-4 1-6-8 1 3-2z" fill="#382B2B"/>
<path transform="translate(432,428)" d="m0 0h1l1 12 4-4h14v1l-13 1-3 5h-4z" fill="#674660"/>
<path transform="translate(649,410)" d="m0 0 6 2 2 2v4l-6 1-2-1v-2l2-1v-2l-2-1z" fill="#6A4960"/>
<path transform="translate(644,411)" d="m0 0 7 1v4l-2 1h-6v-5z" fill="#95786B"/>
<path transform="translate(241,410)" d="m0 0 7 1 1 2-3 3h-5l-2-4z" fill="#95786B"/>
<path transform="translate(497,410)" d="m0 0m-3 1h3v2h-2l3 3v2l-4 2-4-2 1-4z" fill="#684760"/>
<path transform="translate(606,539)" d="m0 0h2l1 7-1 2-12 1-1-3h12z" fill="#1D1815"/>
<path transform="translate(574,540)" d="m0 0h2v6h12l-1 3-12-1-1-1z" fill="#080608"/>
<path transform="translate(644,455)" d="m0 0h5l2 3-2 3h-6v-5z" fill="#95786B"/>
<path transform="translate(353,410)" d="m0 0 5 1 3 3-1 4-4 1-2-1v-2h2v-4h-3z" fill="#684760"/>
<path transform="translate(718,411)" d="m0 0 5 1v4l-6 1-2-1v-4z" fill="#95786B"/>
<path transform="translate(351,411)" d="m0 0 5 1v4l-6 1-2-1v-4z" fill="#95786B"/>
<path transform="translate(536,586)" d="m0 0 8 3 10 1-2 2h-8l-8-3z" fill="#151011"/>
<path transform="translate(238,409)" d="m0 0h8v1l-6 2 1 4-3 1-3-3 1-4z" fill="#674660"/>
<path transform="translate(668,567)" d="m0 0 1 3-9 14-2-2 9-14z" fill="#21191B"/>
<path transform="translate(349,539)" d="m0 0 5 1-10 5-5 3v-3l7-5z" fill="#433435"/>
<path transform="translate(422,413)" d="m0 0h7v4l-5 1-3-2z" fill="#95786B"/>
<path transform="translate(497,412)" d="m0 0h5l2 3-3 2-5-1-1-3z" fill="#95786B"/>
<path transform="translate(659,509)" d="m0 0h14l6 5v2l-5-1-2-4-13-1z" fill="#674660"/>
<path transform="translate(205,240)" d="m0 0h2v2l-14 5 2-4z" fill="#261C20"/>
<path transform="translate(333,568)" d="m0 0 5 10v3l-4-2-2-7z" fill="#503C42"/>
<path transform="translate(293,509)" d="m0 0h13v1l-12 1-2 4-5 1z" fill="#674660"/>
<path transform="translate(354,545)" d="m0 0h8l1 4-11-1 2-1z" fill="#2D2322"/>
<path transform="translate(623,698)" d="m0 0h7l1 2-2 1h-13v-1l7-1z" fill="#644C4F"/>
<path transform="translate(753,660)" d="m0 0 2 1 1 2-8 2-4-1 5-3z" fill="#3B2E2E"/>
<path transform="translate(286,575)" d="m0 0 4 5 6 6-1 2-6-5-3-5z" fill="#221A1B"/>
<path transform="translate(317,539)" d="m0 0 6 2-1 8-5-1 3-1 1-5-7-1z" fill="#61494E"/>
<path transform="translate(642,617)" d="m0 0h10l5 1v1l-11 1v-2z" fill="#48353D"/>
<path transform="translate(319,579)" d="m0 0 4 1-1 8-3-1h2l-1-5-4 1-2-2z" fill="#624B4E"/>
<path transform="translate(843,566)" d="m0 0h1v14l-3-3 1-10z" fill="#36292B"/>
<path transform="translate(174,565)" d="m0 0h2l2 7v5h-2l-2-8z" fill="#443337"/>
<path transform="translate(96,758)" d="m0 0h1v6h-1z" fill="#6E4E61"/>
<path transform="translate(193,258)" d="m0 0" fill="#674660"/>
</svg>
